$MeshFormat
4.1 0 8
$EndMeshFormat
$PhysicalNames
10
2 5 "bottom"
2 6 "top"
2 7 "front"
2 8 "right"
2 9 "back"
2 10 "left"
3 1 "Layer 0"
3 2 "Layer 1"
3 3 "Layer 2"
3 4 "Layer 3"
$EndPhysicalNames
$Entities
20 36 21 4
1 0 0 0 0 
2 4 0 0 0 
3 4 2 0 0 
4 0 2 0 0 
5 0 0 0.5 0 
6 4 0 0.5 0 
10 4 2 0.5 0 
14 0 2 0.5 0 
15 0 0 1 0 
16 4 0 1 0 
20 4 2 1 0 
24 0 2 1 0 
25 0 0 1.5 0 
26 4 0 1.5 0 
30 4 2 1.5 0 
34 0 2 1.5 0 
35 0 0 2 0 
36 4 0 2 0 
40 4 2 2 0 
44 0 2 2 0 
1 0 0 0 4 0 0 0 2 1 -2 
2 4 0 0 4 2 0 0 2 2 -3 
3 0 2 0 4 2 0 0 2 3 -4 
4 0 0 0 0 2 0 0 2 4 -1 
6 0 0 0.5 4 0 0.5 0 2 5 -6 
7 4 0 0.5 4 2 0.5 0 2 6 -10 
8 0 2 0.5 4 2 0.5 0 2 10 -14 
9 0 0 0.5 0 2 0.5 0 2 14 -5 
11 0 0 0 0 0 0.5 0 2 1 -5 
12 4 0 0 4 0 0.5 0 2 2 -6 
16 4 2 0 4 2 0.5 0 2 3 -10 
20 0 2 0 0 2 0.5 0 2 4 -14 
28 0 0 1 4 0 1 0 2 15 -16 
29 4 0 1 4 2 1 0 2 16 -20 
30 0 2 1 4 2 1 0 2 20 -24 
31 0 0 1 0 2 1 0 2 24 -15 
33 0 0 0.5 0 0 1 0 2 5 -15 
34 4 0 0.5 4 0 1 0 2 6 -16 
38 4 2 0.5 4 2 1 0 2 10 -20 
42 0 2 0.5 0 2 1 0 2 14 -24 
50 0 0 1.5 4 0 1.5 0 2 25 -26 
51 4 0 1.5 4 2 1.5 0 2 26 -30 
52 0 2 1.5 4 2 1.5 0 2 30 -34 
53 0 0 1.5 0 2 1.5 0 2 34 -25 
55 0 0 1 0 0 1.5 0 2 15 -25 
56 4 0 1 4 0 1.5 0 2 16 -26 
60 4 2 1 4 2 1.5 0 2 20 -30 
64 0 2 1 0 2 1.5 0 2 24 -34 
72 0 0 2 4 0 2 0 2 35 -36 
73 4 0 2 4 2 2 0 2 36 -40 
74 0 2 2 4 2 2 0 2 40 -44 
75 0 0 2 0 2 2 0 2 44 -35 
77 0 0 1.5 0 0 2 0 2 25 -35 
78 4 0 1.5 4 0 2 0 2 26 -36 
82 4 2 1.5 4 2 2 0 2 30 -40 
86 0 2 1.5 0 2 2 0 2 34 -44 
1 0 0 0 4 2 0 1 5 4 1 2 3 4 
13 0 0 0 4 0 0.5 1 7 4 1 12 -6 -11 
17 4 0 0 4 2 0.5 1 8 4 2 16 -7 -12 
21 0 2 0 4 2 0.5 1 9 4 3 20 -8 -16 
25 0 0 0 0 2 0.5 1 10 4 4 11 -9 -20 
26 0 0 0.5 4 2 0.5 0 4 6 7 8 9 
35 0 0 0.5 4 0 1 1 7 4 6 34 -28 -33 
39 4 0 0.5 4 2 1 1 8 4 7 38 -29 -34 
43 0 2 0.5 4 2 1 1 9 4 8 42 -30 -38 
47 0 0 0.5 0 2 1 1 10 4 9 33 -31 -42 
48 0 0 1 4 2 1 0 4 28 29 30 31 
57 0 0 1 4 0 1.5 1 7 4 28 56 -50 -55 
61 4 0 1 4 2 1.5 1 8 4 29 60 -51 -56 
65 0 2 1 4 2 1.5 1 9 4 30 64 -52 -60 
69 0 0 1 0 2 1.5 1 10 4 31 55 -53 -64 
70 0 0 1.5 4 2 1.5 0 4 50 51 52 53 
79 0 0 1.5 4 0 2 1 7 4 50 78 -72 -77 
83 4 0 1.5 4 2 2 1 8 4 51 82 -73 -78 
87 0 2 1.5 4 2 2 1 9 4 52 86 -74 -82 
91 0 0 1.5 0 2 2 1 10 4 53 77 -75 -86 
92 0 0 2 4 2 2 1 6 4 72 73 74 75 
1 0 0 0 4 2 0.5 1 1 6 -1 26 13 17 21 25 
2 0 0 0.5 4 2 1 1 2 6 -26 48 35 39 43 47 
3 0 0 1 4 2 1.5 1 3 6 -48 70 57 61 65 69 
4 0 0 1.5 4 2 2 1 4 6 -70 92 79 83 87 91 
$EndEntities
$Nodes
81 544 1 544
0 1 0 1
1
0 0 0
0 2 0 1
2
4 0 0
0 3 0 1
3
4 2 0
0 4 0 1
4
0 2 0
0 5 0 1
5
0 0 0.5
0 6 0 1
6
4 0 0.5
0 10 0 1
7
4 2 0.5
0 14 0 1
8
0 2 0.5
0 15 0 1
9
0 0 1
0 16 0 1
10
4 0 1
0 20 0 1
11
4 2 1
0 24 0 1
12
0 2 1
0 25 0 1
13
0 0 1.5
0 26 0 1
14
4 0 1.5
0 30 0 1
15
4 2 1.5
0 34 0 1
16
0 2 1.5
0 35 0 1
17
0 0 2
0 36 0 1
18
4 0 2
0 40 0 1
19
4 2 2
0 44 0 1
20
0 2 2
1 1 0 4
21
22
23
24
0.7999999999982276 0 0
1.599999999995892 0 0
2.39999999999578 0 0
3.19999999999789 0 0
1 2 0 3
25
26
27
4 0.4999999999988219 0
4 0.9999999999973842 0
4 1.499999999998681 0
1 3 0 4
28
29
30
31
3.2 2 0
2.40000000000555 2 0
1.60000000000666 2 0
0.80000000000333 2 0
1 4 0 3
32
33
34
0 1.500000000000694 0
0 1.000000000004119 0
0 0.500000000002081 0
1 6 0 4
35
36
37
38
0.7999999999982276 0 0.5
1.599999999995892 0 0.5
2.39999999999578 0 0.5
3.19999999999789 0 0.5
1 7 0 3
39
40
41
4 0.4999999999988219 0.5
4 0.9999999999973842 0.5
4 1.499999999998681 0.5
1 8 0 4
42
43
44
45
3.2 2 0.5
2.40000000000555 2 0.5
1.60000000000666 2 0.5
0.80000000000333 2 0.5
1 9 0 3
46
47
48
0 1.500000000000694 0.5
0 1.000000000004119 0.5
0 0.500000000002081 0.5
1 11 0 3
49
50
51
0 0 0.125
0 0 0.25
0 0 0.375
1 12 0 3
52
53
54
4 0 0.125
4 0 0.25
4 0 0.375
1 16 0 3
55
56
57
4 2 0.125
4 2 0.25
4 2 0.375
1 20 0 3
58
59
60
0 2 0.125
0 2 0.25
0 2 0.375
1 28 0 4
61
62
63
64
0.7999999999982276 0 1
1.599999999995892 0 1
2.39999999999578 0 1
3.19999999999789 0 1
1 29 0 3
65
66
67
4 0.4999999999988219 1
4 0.9999999999973842 1
4 1.499999999998681 1
1 30 0 4
68
69
70
71
3.2 2 1
2.40000000000555 2 1
1.60000000000666 2 1
0.80000000000333 2 1
1 31 0 3
72
73
74
0 1.500000000000694 1
0 1.000000000004119 1
0 0.500000000002081 1
1 33 0 3
75
76
77
0 0 0.625
0 0 0.75
0 0 0.875
1 34 0 3
78
79
80
4 0 0.625
4 0 0.75
4 0 0.875
1 38 0 3
81
82
83
4 2 0.625
4 2 0.75
4 2 0.875
1 42 0 3
84
85
86
0 2 0.625
0 2 0.75
0 2 0.875
1 50 0 4
87
88
89
90
0.7999999999982276 0 1.5
1.599999999995892 0 1.5
2.39999999999578 0 1.5
3.19999999999789 0 1.5
1 51 0 3
91
92
93
4 0.4999999999988219 1.5
4 0.9999999999973842 1.5
4 1.499999999998681 1.5
1 52 0 4
94
95
96
97
3.2 2 1.5
2.40000000000555 2 1.5
1.60000000000666 2 1.5
0.80000000000333 2 1.5
1 53 0 3
98
99
100
0 1.500000000000694 1.5
0 1.000000000004119 1.5
0 0.500000000002081 1.5
1 55 0 3
101
102
103
0 0 1.125
0 0 1.25
0 0 1.375
1 56 0 3
104
105
106
4 0 1.125
4 0 1.25
4 0 1.375
1 60 0 3
107
108
109
4 2 1.125
4 2 1.25
4 2 1.375
1 64 0 3
110
111
112
0 2 1.125
0 2 1.25
0 2 1.375
1 72 0 4
113
114
115
116
0.7999999999982276 0 2
1.599999999995892 0 2
2.39999999999578 0 2
3.19999999999789 0 2
1 73 0 3
117
118
119
4 0.4999999999988219 2
4 0.9999999999973842 2
4 1.499999999998681 2
1 74 0 4
120
121
122
123
3.2 2 2
2.40000000000555 2 2
1.60000000000666 2 2
0.80000000000333 2 2
1 75 0 3
124
125
126
0 1.500000000000694 2
0 1.000000000004119 2
0 0.500000000002081 2
1 77 0 3
127
128
129
0 0 1.625
0 0 1.75
0 0 1.875
1 78 0 3
130
131
132
4 0 1.625
4 0 1.75
4 0 1.875
1 82 0 3
133
134
135
4 2 1.625
4 2 1.75
4 2 1.875
1 86 0 3
136
137
138
0 2 1.625
0 2 1.75
0 2 1.875
2 1 0 14
139
140
141
142
143
144
145
146
147
148
149
150
151
152
2.805068937029368 1.355816069067616 0
1.194931062970774 0.6154893748122622 0
3.607096511839518 0.7292114096446134 0
0.3929034881594524 1.270788590356029 0
1.852390705531007 1.32418243023609 0
0.4556275446079509 0.7736504987215324 0
0.9590019010011069 1.386664869280436 0
3.544372455391144 1.225104596547089 0
3.019911056931532 0.5971397515749773 0
2.145383627075725 0.6487712709484907 0
3.56384969424278 1.694857055443395 0
0.4361503057570228 0.3035842470957218 0
0.4266037715172915 1.65750569161592 0
3.570383793901618 0.3401806827923324 0
2 13 0 12
153
154
155
156
157
158
159
160
161
162
163
164
0.7999999999982276 0 0.125
0.7999999999982276 0 0.25
0.7999999999982276 0 0.375
1.599999999995892 0 0.125
1.599999999995892 0 0.25
1.599999999995892 0 0.375
2.39999999999578 0 0.125
2.39999999999578 0 0.25
2.39999999999578 0 0.375
3.19999999999789 0 0.125
3.19999999999789 0 0.25
3.19999999999789 0 0.375
2 17 0 9
165
166
167
168
169
170
171
172
173
4 0.4999999999988219 0.125
4 0.4999999999988219 0.25
4 0.4999999999988219 0.375
4 0.9999999999973842 0.125
4 0.9999999999973842 0.25
4 0.9999999999973842 0.375
4 1.499999999998681 0.125
4 1.499999999998681 0.25
4 1.499999999998681 0.375
2 21 0 12
174
175
176
177
178
179
180
181
182
183
184
185
3.2 2 0.125
3.2 2 0.25
3.2 2 0.375
2.40000000000555 2 0.125
2.40000000000555 2 0.25
2.40000000000555 2 0.375
1.60000000000666 2 0.125
1.60000000000666 2 0.25
1.60000000000666 2 0.375
0.80000000000333 2 0.125
0.80000000000333 2 0.25
0.80000000000333 2 0.375
2 25 0 9
186
187
188
189
190
191
192
193
194
0 1.500000000000694 0.125
0 1.500000000000694 0.25
0 1.500000000000694 0.375
0 1.000000000004119 0.125
0 1.000000000004119 0.25
0 1.000000000004119 0.375
0 0.500000000002081 0.125
0 0.500000000002081 0.25
0 0.500000000002081 0.375
2 26 0 14
195
196
197
198
199
200
201
202
203
204
205
206
207
208
2.805068937029368 1.355816069067616 0.5
1.194931062970774 0.6154893748122622 0.5
3.607096511839518 0.7292114096446134 0.5
0.3929034881594524 1.270788590356029 0.5
1.852390705531007 1.32418243023609 0.5
0.4556275446079509 0.7736504987215324 0.5
0.9590019010011069 1.386664869280436 0.5
3.544372455391144 1.225104596547089 0.5
3.019911056931532 0.5971397515749773 0.5
2.145383627075725 0.6487712709484907 0.5
3.56384969424278 1.694857055443395 0.5
0.4361503057570228 0.3035842470957218 0.5
0.4266037715172915 1.65750569161592 0.5
3.570383793901618 0.3401806827923324 0.5
2 35 0 12
209
210
211
212
213
214
215
216
217
218
219
220
0.7999999999982276 0 0.625
0.7999999999982276 0 0.75
0.7999999999982276 0 0.875
1.599999999995892 0 0.625
1.599999999995892 0 0.75
1.599999999995892 0 0.875
2.39999999999578 0 0.625
2.39999999999578 0 0.75
2.39999999999578 0 0.875
3.19999999999789 0 0.625
3.19999999999789 0 0.75
3.19999999999789 0 0.875
2 39 0 9
221
222
223
224
225
226
227
228
229
4 0.4999999999988219 0.625
4 0.4999999999988219 0.75
4 0.4999999999988219 0.875
4 0.9999999999973842 0.625
4 0.9999999999973842 0.75
4 0.9999999999973842 0.875
4 1.499999999998681 0.625
4 1.499999999998681 0.75
4 1.499999999998681 0.875
2 43 0 12
230
231
232
233
234
235
236
237
238
239
240
241
3.2 2 0.625
3.2 2 0.75
3.2 2 0.875
2.40000000000555 2 0.625
2.40000000000555 2 0.75
2.40000000000555 2 0.875
1.60000000000666 2 0.625
1.60000000000666 2 0.75
1.60000000000666 2 0.875
0.80000000000333 2 0.625
0.80000000000333 2 0.75
0.80000000000333 2 0.875
2 47 0 9
242
243
244
245
246
247
248
249
250
0 1.500000000000694 0.625
0 1.500000000000694 0.75
0 1.500000000000694 0.875
0 1.000000000004119 0.625
0 1.000000000004119 0.75
0 1.000000000004119 0.875
0 0.500000000002081 0.625
0 0.500000000002081 0.75
0 0.500000000002081 0.875
2 48 0 14
251
252
253
254
255
256
257
258
259
260
261
262
263
264
2.805068937029368 1.355816069067616 1
1.194931062970774 0.6154893748122622 1
3.607096511839518 0.7292114096446134 1
0.3929034881594524 1.270788590356029 1
1.852390705531007 1.32418243023609 1
0.4556275446079509 0.7736504987215324 1
0.9590019010011069 1.386664869280436 1
3.544372455391144 1.225104596547089 1
3.019911056931532 0.5971397515749773 1
2.145383627075725 0.6487712709484907 1
3.56384969424278 1.694857055443395 1
0.4361503057570228 0.3035842470957218 1
0.4266037715172915 1.65750569161592 1
3.570383793901618 0.3401806827923324 1
2 57 0 12
265
266
267
268
269
270
271
272
273
274
275
276
0.7999999999982276 0 1.125
0.7999999999982276 0 1.25
0.7999999999982276 0 1.375
1.599999999995892 0 1.125
1.599999999995892 0 1.25
1.599999999995892 0 1.375
2.39999999999578 0 1.125
2.39999999999578 0 1.25
2.39999999999578 0 1.375
3.19999999999789 0 1.125
3.19999999999789 0 1.25
3.19999999999789 0 1.375
2 61 0 9
277
278
279
280
281
282
283
284
285
4 0.4999999999988219 1.125
4 0.4999999999988219 1.25
4 0.4999999999988219 1.375
4 0.9999999999973842 1.125
4 0.9999999999973842 1.25
4 0.9999999999973842 1.375
4 1.499999999998681 1.125
4 1.499999999998681 1.25
4 1.499999999998681 1.375
2 65 0 12
286
287
288
289
290
291
292
293
294
295
296
297
3.2 2 1.125
3.2 2 1.25
3.2 2 1.375
2.40000000000555 2 1.125
2.40000000000555 2 1.25
2.40000000000555 2 1.375
1.60000000000666 2 1.125
1.60000000000666 2 1.25
1.60000000000666 2 1.375
0.80000000000333 2 1.125
0.80000000000333 2 1.25
0.80000000000333 2 1.375
2 69 0 9
298
299
300
301
302
303
304
305
306
0 1.500000000000694 1.125
0 1.500000000000694 1.25
0 1.500000000000694 1.375
0 1.000000000004119 1.125
0 1.000000000004119 1.25
0 1.000000000004119 1.375
0 0.500000000002081 1.125
0 0.500000000002081 1.25
0 0.500000000002081 1.375
2 70 0 14
307
308
309
310
311
312
313
314
315
316
317
318
319
320
2.805068937029368 1.355816069067616 1.5
1.194931062970774 0.6154893748122622 1.5
3.607096511839518 0.7292114096446134 1.5
0.3929034881594524 1.270788590356029 1.5
1.852390705531007 1.32418243023609 1.5
0.4556275446079509 0.7736504987215324 1.5
0.9590019010011069 1.386664869280436 1.5
3.544372455391144 1.225104596547089 1.5
3.019911056931532 0.5971397515749773 1.5
2.145383627075725 0.6487712709484907 1.5
3.56384969424278 1.694857055443395 1.5
0.4361503057570228 0.3035842470957218 1.5
0.4266037715172915 1.65750569161592 1.5
3.570383793901618 0.3401806827923324 1.5
2 79 0 12
321
322
323
324
325
326
327
328
329
330
331
332
0.7999999999982276 0 1.625
0.7999999999982276 0 1.75
0.7999999999982276 0 1.875
1.599999999995892 0 1.625
1.599999999995892 0 1.75
1.599999999995892 0 1.875
2.39999999999578 0 1.625
2.39999999999578 0 1.75
2.39999999999578 0 1.875
3.19999999999789 0 1.625
3.19999999999789 0 1.75
3.19999999999789 0 1.875
2 83 0 9
333
334
335
336
337
338
339
340
341
4 0.4999999999988219 1.625
4 0.4999999999988219 1.75
4 0.4999999999988219 1.875
4 0.9999999999973842 1.625
4 0.9999999999973842 1.75
4 0.9999999999973842 1.875
4 1.499999999998681 1.625
4 1.499999999998681 1.75
4 1.499999999998681 1.875
2 87 0 12
342
343
344
345
346
347
348
349
350
351
352
353
3.2 2 1.625
3.2 2 1.75
3.2 2 1.875
2.40000000000555 2 1.625
2.40000000000555 2 1.75
2.40000000000555 2 1.875
1.60000000000666 2 1.625
1.60000000000666 2 1.75
1.60000000000666 2 1.875
0.80000000000333 2 1.625
0.80000000000333 2 1.75
0.80000000000333 2 1.875
2 91 0 9
354
355
356
357
358
359
360
361
362
0 1.500000000000694 1.625
0 1.500000000000694 1.75
0 1.500000000000694 1.875
0 1.000000000004119 1.625
0 1.000000000004119 1.75
0 1.000000000004119 1.875
0 0.500000000002081 1.625
0 0.500000000002081 1.75
0 0.500000000002081 1.875
2 92 0 14
363
364
365
366
367
368
369
370
371
372
373
374
375
376
2.805068937029368 1.355816069067616 2
1.194931062970774 0.6154893748122622 2
3.607096511839518 0.7292114096446134 2
0.3929034881594524 1.270788590356029 2
1.852390705531007 1.32418243023609 2
0.4556275446079509 0.7736504987215324 2
0.9590019010011069 1.386664869280436 2
3.544372455391144 1.225104596547089 2
3.019911056931532 0.5971397515749773 2
2.145383627075725 0.6487712709484907 2
3.56384969424278 1.694857055443395 2
0.4361503057570228 0.3035842470957218 2
0.4266037715172915 1.65750569161592 2
3.570383793901618 0.3401806827923324 2
3 1 0 42
377
378
379
380
381
382
383
384
385
386
387
388
389
390
391
392
393
394
395
396
397
398
399
400
401
402
403
404
405
406
407
408
409
410
411
412
413
414
415
416
417
418
2.805068937029368 1.355816069067616 0.125
2.805068937029368 1.355816069067616 0.25
2.805068937029368 1.355816069067616 0.375
1.194931062970774 0.6154893748122622 0.125
1.194931062970774 0.6154893748122622 0.25
1.194931062970774 0.6154893748122622 0.375
3.607096511839518 0.7292114096446134 0.125
3.607096511839518 0.7292114096446134 0.25
3.607096511839518 0.7292114096446134 0.375
0.3929034881594524 1.270788590356029 0.125
0.3929034881594524 1.270788590356029 0.25
0.3929034881594524 1.270788590356029 0.375
1.852390705531007 1.32418243023609 0.125
1.852390705531007 1.32418243023609 0.25
1.852390705531007 1.32418243023609 0.375
0.4556275446079509 0.7736504987215324 0.125
0.4556275446079509 0.7736504987215324 0.25
0.4556275446079509 0.7736504987215324 0.375
0.9590019010011069 1.386664869280436 0.125
0.9590019010011069 1.386664869280436 0.25
0.9590019010011069 1.386664869280436 0.375
3.544372455391144 1.225104596547089 0.125
3.544372455391144 1.225104596547089 0.25
3.544372455391144 1.225104596547089 0.375
3.019911056931532 0.5971397515749773 0.125
3.019911056931532 0.5971397515749773 0.25
3.019911056931532 0.5971397515749773 0.375
2.145383627075725 0.6487712709484907 0.125
2.145383627075725 0.6487712709484907 0.25
2.145383627075725 0.6487712709484907 0.375
3.56384969424278 1.694857055443395 0.125
3.56384969424278 1.694857055443395 0.25
3.56384969424278 1.694857055443395 0.375
0.4361503057570228 0.3035842470957218 0.125
0.4361503057570228 0.3035842470957218 0.25
0.4361503057570228 0.3035842470957218 0.375
0.4266037715172915 1.65750569161592 0.125
0.4266037715172915 1.65750569161592 0.25
0.4266037715172915 1.65750569161592 0.375
3.570383793901618 0.3401806827923324 0.125
3.570383793901618 0.3401806827923324 0.25
3.570383793901618 0.3401806827923324 0.375
3 2 0 42
419
420
421
422
423
424
425
426
427
428
429
430
431
432
433
434
435
436
437
438
439
440
441
442
443
444
445
446
447
448
449
450
451
452
453
454
455
456
457
458
459
460
2.805068937029368 1.355816069067616 0.625
2.805068937029368 1.355816069067616 0.75
2.805068937029368 1.355816069067616 0.875
1.194931062970774 0.6154893748122622 0.625
1.194931062970774 0.6154893748122622 0.75
1.194931062970774 0.6154893748122622 0.875
3.607096511839518 0.7292114096446134 0.625
3.607096511839518 0.7292114096446134 0.75
3.607096511839518 0.7292114096446134 0.875
0.3929034881594524 1.270788590356029 0.625
0.3929034881594524 1.270788590356029 0.75
0.3929034881594524 1.270788590356029 0.875
1.852390705531007 1.32418243023609 0.625
1.852390705531007 1.32418243023609 0.75
1.852390705531007 1.32418243023609 0.875
0.4556275446079509 0.7736504987215324 0.625
0.4556275446079509 0.7736504987215324 0.75
0.4556275446079509 0.7736504987215324 0.875
0.9590019010011069 1.386664869280436 0.625
0.9590019010011069 1.386664869280436 0.75
0.9590019010011069 1.386664869280436 0.875
3.544372455391144 1.225104596547089 0.625
3.544372455391144 1.225104596547089 0.75
3.544372455391144 1.225104596547089 0.875
3.019911056931532 0.5971397515749773 0.625
3.019911056931532 0.5971397515749773 0.75
3.019911056931532 0.5971397515749773 0.875
2.145383627075725 0.6487712709484907 0.625
2.145383627075725 0.6487712709484907 0.75
2.145383627075725 0.6487712709484907 0.875
3.56384969424278 1.694857055443395 0.625
3.56384969424278 1.694857055443395 0.75
3.56384969424278 1.694857055443395 0.875
0.4361503057570228 0.3035842470957218 0.625
0.4361503057570228 0.3035842470957218 0.75
0.4361503057570228 0.3035842470957218 0.875
0.4266037715172915 1.65750569161592 0.625
0.4266037715172915 1.65750569161592 0.75
0.4266037715172915 1.65750569161592 0.875
3.570383793901618 0.3401806827923324 0.625
3.570383793901618 0.3401806827923324 0.75
3.570383793901618 0.3401806827923324 0.875
3 3 0 42
461
462
463
464
465
466
467
468
469
470
471
472
473
474
475
476
477
478
479
480
481
482
483
484
485
486
487
488
489
490
491
492
493
494
495
496
497
498
499
500
501
502
2.805068937029368 1.355816069067616 1.125
2.805068937029368 1.355816069067616 1.25
2.805068937029368 1.355816069067616 1.375
1.194931062970774 0.6154893748122622 1.125
1.194931062970774 0.6154893748122622 1.25
1.194931062970774 0.6154893748122622 1.375
3.607096511839518 0.7292114096446134 1.125
3.607096511839518 0.7292114096446134 1.25
3.607096511839518 0.7292114096446134 1.375
0.3929034881594524 1.270788590356029 1.125
0.3929034881594524 1.270788590356029 1.25
0.3929034881594524 1.270788590356029 1.375
1.852390705531007 1.32418243023609 1.125
1.852390705531007 1.32418243023609 1.25
1.852390705531007 1.32418243023609 1.375
0.4556275446079509 0.7736504987215324 1.125
0.4556275446079509 0.7736504987215324 1.25
0.4556275446079509 0.7736504987215324 1.375
0.9590019010011069 1.386664869280436 1.125
0.9590019010011069 1.386664869280436 1.25
0.9590019010011069 1.386664869280436 1.375
3.544372455391144 1.225104596547089 1.125
3.544372455391144 1.225104596547089 1.25
3.544372455391144 1.225104596547089 1.375
3.019911056931532 0.5971397515749773 1.125
3.019911056931532 0.5971397515749773 1.25
3.019911056931532 0.5971397515749773 1.375
2.145383627075725 0.6487712709484907 1.125
2.145383627075725 0.6487712709484907 1.25
2.145383627075725 0.6487712709484907 1.375
3.56384969424278 1.694857055443395 1.125
3.56384969424278 1.694857055443395 1.25
3.56384969424278 1.694857055443395 1.375
0.4361503057570228 0.3035842470957218 1.125
0.4361503057570228 0.3035842470957218 1.25
0.4361503057570228 0.3035842470957218 1.375
0.4266037715172915 1.65750569161592 1.125
0.4266037715172915 1.65750569161592 1.25
0.4266037715172915 1.65750569161592 1.375
3.570383793901618 0.3401806827923324 1.125
3.570383793901618 0.3401806827923324 1.25
3.570383793901618 0.3401806827923324 1.375
3 4 0 42
503
504
505
506
507
508
509
510
511
512
513
514
515
516
517
518
519
520
521
522
523
524
525
526
527
528
529
530
531
532
533
534
535
536
537
538
539
540
541
542
543
544
2.805068937029368 1.355816069067616 1.625
2.805068937029368 1.355816069067616 1.75
2.805068937029368 1.355816069067616 1.875
1.194931062970774 0.6154893748122622 1.625
1.194931062970774 0.6154893748122622 1.75
1.194931062970774 0.6154893748122622 1.875
3.607096511839518 0.7292114096446134 1.625
3.607096511839518 0.7292114096446134 1.75
3.607096511839518 0.7292114096446134 1.875
0.3929034881594524 1.270788590356029 1.625
0.3929034881594524 1.270788590356029 1.75
0.3929034881594524 1.270788590356029 1.875
1.852390705531007 1.32418243023609 1.625
1.852390705531007 1.32418243023609 1.75
1.852390705531007 1.32418243023609 1.875
0.4556275446079509 0.7736504987215324 1.625
0.4556275446079509 0.7736504987215324 1.75
0.4556275446079509 0.7736504987215324 1.875
0.9590019010011069 1.386664869280436 1.625
0.9590019010011069 1.386664869280436 1.75
0.9590019010011069 1.386664869280436 1.875
3.544372455391144 1.225104596547089 1.625
3.544372455391144 1.225104596547089 1.75
3.544372455391144 1.225104596547089 1.875
3.019911056931532 0.5971397515749773 1.625
3.019911056931532 0.5971397515749773 1.75
3.019911056931532 0.5971397515749773 1.875
2.145383627075725 0.6487712709484907 1.625
2.145383627075725 0.6487712709484907 1.75
2.145383627075725 0.6487712709484907 1.875
3.56384969424278 1.694857055443395 1.625
3.56384969424278 1.694857055443395 1.75
3.56384969424278 1.694857055443395 1.875
0.4361503057570228 0.3035842470957218 1.625
0.4361503057570228 0.3035842470957218 1.75
0.4361503057570228 0.3035842470957218 1.875
0.4266037715172915 1.65750569161592 1.625
0.4266037715172915 1.65750569161592 1.75
0.4266037715172915 1.65750569161592 1.875
3.570383793901618 0.3401806827923324 1.625
3.570383793901618 0.3401806827923324 1.75
3.570383793901618 0.3401806827923324 1.875
$EndNodes
$Elements
22 1928 1 1928
2 1 2 44
1 141 146 147 
2 142 144 145 
3 147 139 148 
4 139 143 148 
5 3 28 149 
6 1 21 150 
7 31 4 151 
8 24 2 152 
9 139 146 149 
10 140 144 150 
11 140 143 145 
12 146 139 147 
13 144 140 145 
14 143 140 148 
15 143 30 145 
16 28 139 149 
17 21 140 150 
18 23 147 148 
19 29 30 143 
20 21 22 140 
21 28 29 139 
22 139 29 143 
23 141 147 152 
24 142 145 151 
25 140 22 148 
26 30 31 145 
27 23 24 147 
28 22 23 148 
29 33 34 144 
30 26 27 146 
31 25 26 141 
32 32 33 142 
33 147 24 152 
34 145 31 151 
35 27 3 149 
36 34 1 150 
37 4 32 151 
38 2 25 152 
39 141 26 146 
40 142 33 144 
41 146 27 149 
42 144 34 150 
43 32 142 151 
44 25 141 152 
2 13 2 40
45 49 1 21 
46 49 21 153 
47 50 49 153 
48 50 153 154 
49 51 50 154 
50 51 154 155 
51 5 51 155 
52 5 155 35 
53 153 21 22 
54 153 22 156 
55 154 153 156 
56 154 156 157 
57 155 154 157 
58 155 157 158 
59 35 155 158 
60 35 158 36 
61 156 22 23 
62 156 23 159 
63 157 156 159 
64 157 159 160 
65 158 157 160 
66 158 160 161 
67 36 158 161 
68 36 161 37 
69 159 23 24 
70 159 24 162 
71 160 159 162 
72 160 162 163 
73 161 160 163 
74 161 163 164 
75 37 161 164 
76 37 164 38 
77 162 24 2 
78 162 2 52 
79 163 162 52 
80 163 52 53 
81 164 163 53 
82 164 53 54 
83 38 164 54 
84 38 54 6 
2 17 2 32
85 52 2 25 
86 52 25 165 
87 53 52 165 
88 53 165 166 
89 54 53 166 
90 54 166 167 
91 6 54 167 
92 6 167 39 
93 165 25 26 
94 165 26 168 
95 166 165 168 
96 166 168 169 
97 167 166 169 
98 167 169 170 
99 39 167 170 
100 39 170 40 
101 168 26 27 
102 168 27 171 
103 169 168 171 
104 169 171 172 
105 170 169 172 
106 170 172 173 
107 40 170 173 
108 40 173 41 
109 171 27 3 
110 171 3 55 
111 172 171 55 
112 172 55 56 
113 173 172 56 
114 173 56 57 
115 41 173 57 
116 41 57 7 
2 21 2 40
117 55 3 28 
118 55 28 174 
119 56 55 174 
120 56 174 175 
121 57 56 175 
122 57 175 176 
123 7 57 176 
124 7 176 42 
125 174 28 29 
126 174 29 177 
127 175 174 177 
128 175 177 178 
129 176 175 178 
130 176 178 179 
131 42 176 179 
132 42 179 43 
133 177 29 30 
134 177 30 180 
135 178 177 180 
136 178 180 181 
137 179 178 181 
138 179 181 182 
139 43 179 182 
140 43 182 44 
141 180 30 31 
142 180 31 183 
143 181 180 183 
144 181 183 184 
145 182 181 184 
146 182 184 185 
147 44 182 185 
148 44 185 45 
149 183 31 4 
150 183 4 58 
151 184 183 58 
152 184 58 59 
153 185 184 59 
154 185 59 60 
155 45 185 60 
156 45 60 8 
2 25 2 32
157 58 4 32 
158 58 32 186 
159 59 58 186 
160 59 186 187 
161 60 59 187 
162 60 187 188 
163 8 60 188 
164 8 188 46 
165 186 32 33 
166 186 33 189 
167 187 186 189 
168 187 189 190 
169 188 187 190 
170 188 190 191 
171 46 188 191 
172 46 191 47 
173 189 33 34 
174 189 34 192 
175 190 189 192 
176 190 192 193 
177 191 190 193 
178 191 193 194 
179 47 191 194 
180 47 194 48 
181 192 34 1 
182 192 1 49 
183 193 192 49 
184 193 49 50 
185 194 193 50 
186 194 50 51 
187 48 194 51 
188 48 51 5 
2 35 3 20
189 5 35 209 75 
190 75 209 210 76 
191 76 210 211 77 
192 77 211 61 9 
193 35 36 212 209 
194 209 212 213 210 
195 210 213 214 211 
196 211 214 62 61 
197 36 37 215 212 
198 212 215 216 213 
199 213 216 217 214 
200 214 217 63 62 
201 37 38 218 215 
202 215 218 219 216 
203 216 219 220 217 
204 217 220 64 63 
205 38 6 78 218 
206 218 78 79 219 
207 219 79 80 220 
208 220 80 10 64 
2 39 3 16
209 6 39 221 78 
210 78 221 222 79 
211 79 222 223 80 
212 80 223 65 10 
213 39 40 224 221 
214 221 224 225 222 
215 222 225 226 223 
216 223 226 66 65 
217 40 41 227 224 
218 224 227 228 225 
219 225 228 229 226 
220 226 229 67 66 
221 41 7 81 227 
222 227 81 82 228 
223 228 82 83 229 
224 229 83 11 67 
2 43 3 20
225 7 42 230 81 
226 81 230 231 82 
227 82 231 232 83 
228 83 232 68 11 
229 42 43 233 230 
230 230 233 234 231 
231 231 234 235 232 
232 232 235 69 68 
233 43 44 236 233 
234 233 236 237 234 
235 234 237 238 235 
236 235 238 70 69 
237 44 45 239 236 
238 236 239 240 237 
239 237 240 241 238 
240 238 241 71 70 
241 45 8 84 239 
242 239 84 85 240 
243 240 85 86 241 
244 241 86 12 71 
2 47 3 16
245 8 46 242 84 
246 84 242 243 85 
247 85 243 244 86 
248 86 244 72 12 
249 46 47 245 242 
250 242 245 246 243 
251 243 246 247 244 
252 244 247 73 72 
253 47 48 248 245 
254 245 248 249 246 
255 246 249 250 247 
256 247 250 74 73 
257 48 5 75 248 
258 248 75 76 249 
259 249 76 77 250 
260 250 77 9 74 
2 57 2 40
261 101 9 61 
262 101 61 265 
263 102 101 265 
264 102 265 266 
265 103 102 266 
266 103 266 267 
267 13 103 267 
268 13 267 87 
269 265 61 62 
270 265 62 268 
271 266 265 268 
272 266 268 269 
273 267 266 269 
274 267 269 270 
275 87 267 270 
276 87 270 88 
277 268 62 63 
278 268 63 271 
279 269 268 271 
280 269 271 272 
281 270 269 272 
282 270 272 273 
283 88 270 273 
284 88 273 89 
285 271 63 64 
286 271 64 274 
287 272 271 274 
288 272 274 275 
289 273 272 275 
290 273 275 276 
291 89 273 276 
292 89 276 90 
293 274 64 10 
294 274 10 104 
295 275 274 104 
296 275 104 105 
297 276 275 105 
298 276 105 106 
299 90 276 106 
300 90 106 14 
2 61 2 32
301 104 10 65 
302 104 65 277 
303 105 104 277 
304 105 277 278 
305 106 105 278 
306 106 278 279 
307 14 106 279 
308 14 279 91 
309 277 65 66 
310 277 66 280 
311 278 277 280 
312 278 280 281 
313 279 278 281 
314 279 281 282 
315 91 279 282 
316 91 282 92 
317 280 66 67 
318 280 67 283 
319 281 280 283 
320 281 283 284 
321 282 281 284 
322 282 284 285 
323 92 282 285 
324 92 285 93 
325 283 67 11 
326 283 11 107 
327 284 283 107 
328 284 107 108 
329 285 284 108 
330 285 108 109 
331 93 285 109 
332 93 109 15 
2 65 2 40
333 107 11 68 
334 107 68 286 
335 108 107 286 
336 108 286 287 
337 109 108 287 
338 109 287 288 
339 15 109 288 
340 15 288 94 
341 286 68 69 
342 286 69 289 
343 287 286 289 
344 287 289 290 
345 288 287 290 
346 288 290 291 
347 94 288 291 
348 94 291 95 
349 289 69 70 
350 289 70 292 
351 290 289 292 
352 290 292 293 
353 291 290 293 
354 291 293 294 
355 95 291 294 
356 95 294 96 
357 292 70 71 
358 292 71 295 
359 293 292 295 
360 293 295 296 
361 294 293 296 
362 294 296 297 
363 96 294 297 
364 96 297 97 
365 295 71 12 
366 295 12 110 
367 296 295 110 
368 296 110 111 
369 297 296 111 
370 297 111 112 
371 97 297 112 
372 97 112 16 
2 69 2 32
373 110 12 72 
374 110 72 298 
375 111 110 298 
376 111 298 299 
377 112 111 299 
378 112 299 300 
379 16 112 300 
380 16 300 98 
381 298 72 73 
382 298 73 301 
383 299 298 301 
384 299 301 302 
385 300 299 302 
386 300 302 303 
387 98 300 303 
388 98 303 99 
389 301 73 74 
390 301 74 304 
391 302 301 304 
392 302 304 305 
393 303 302 305 
394 303 305 306 
395 99 303 306 
396 99 306 100 
397 304 74 9 
398 304 9 101 
399 305 304 101 
400 305 101 102 
401 306 305 102 
402 306 102 103 
403 100 306 103 
404 100 103 13 
2 79 3 20
405 13 87 321 127 
406 127 321 322 128 
407 128 322 323 129 
408 129 323 113 17 
409 87 88 324 321 
410 321 324 325 322 
411 322 325 326 323 
412 323 326 114 113 
413 88 89 327 324 
414 324 327 328 325 
415 325 328 329 326 
416 326 329 115 114 
417 89 90 330 327 
418 327 330 331 328 
419 328 331 332 329 
420 329 332 116 115 
421 90 14 130 330 
422 330 130 131 331 
423 331 131 132 332 
424 332 132 18 116 
2 83 3 16
425 14 91 333 130 
426 130 333 334 131 
427 131 334 335 132 
428 132 335 117 18 
429 91 92 336 333 
430 333 336 337 334 
431 334 337 338 335 
432 335 338 118 117 
433 92 93 339 336 
434 336 339 340 337 
435 337 340 341 338 
436 338 341 119 118 
437 93 15 133 339 
438 339 133 134 340 
439 340 134 135 341 
440 341 135 19 119 
2 87 3 20
441 15 94 342 133 
442 133 342 343 134 
443 134 343 344 135 
444 135 344 120 19 
445 94 95 345 342 
446 342 345 346 343 
447 343 346 347 344 
448 344 347 121 120 
449 95 96 348 345 
450 345 348 349 346 
451 346 349 350 347 
452 347 350 122 121 
453 96 97 351 348 
454 348 351 352 349 
455 349 352 353 350 
456 350 353 123 122 
457 97 16 136 351 
458 351 136 137 352 
459 352 137 138 353 
460 353 138 20 123 
2 91 3 16
461 16 98 354 136 
462 136 354 355 137 
463 137 355 356 138 
464 138 356 124 20 
465 98 99 357 354 
466 354 357 358 355 
467 355 358 359 356 
468 356 359 125 124 
469 99 100 360 357 
470 357 360 361 358 
471 358 361 362 359 
472 359 362 126 125 
473 100 13 127 360 
474 360 127 128 361 
475 361 128 129 362 
476 362 129 17 126 
2 92 2 44
477 365 370 371 
478 366 368 369 
479 371 363 372 
480 363 367 372 
481 19 120 373 
482 17 113 374 
483 123 20 375 
484 116 18 376 
485 363 370 373 
486 364 368 374 
487 364 367 369 
488 370 363 371 
489 368 364 369 
490 367 364 372 
491 367 122 369 
492 120 363 373 
493 113 364 374 
494 115 371 372 
495 121 122 367 
496 113 114 364 
497 120 121 363 
498 363 121 367 
499 365 371 376 
500 366 369 375 
501 364 114 372 
502 122 123 369 
503 115 116 371 
504 114 115 372 
505 125 126 368 
506 118 119 370 
507 117 118 365 
508 124 125 366 
509 371 116 376 
510 369 123 375 
511 119 19 373 
512 126 17 374 
513 20 124 375 
514 18 117 376 
515 365 118 370 
516 366 125 368 
517 370 119 373 
518 368 126 374 
519 124 366 375 
520 117 365 376 
3 1 4 528
521 141 146 147 401 
522 398 383 401 146 
523 146 383 401 141 
524 383 398 401 402 
525 399 384 402 398 
526 398 384 402 383 
527 384 399 402 403 
528 400 385 403 399 
529 399 385 403 384 
530 385 400 403 203 
531 202 197 203 400 
532 400 197 203 385 
533 142 144 145 395 
534 392 386 395 144 
535 144 386 395 142 
536 386 392 395 396 
537 393 387 396 392 
538 392 387 396 386 
539 387 393 396 397 
540 394 388 397 393 
541 393 388 397 387 
542 388 394 397 201 
543 200 198 201 394 
544 394 198 201 388 
545 147 139 148 404 
546 377 401 404 139 
547 139 401 404 147 
548 401 377 404 405 
549 378 402 405 377 
550 377 402 405 401 
551 402 378 405 406 
552 379 403 406 378 
553 378 403 406 402 
554 403 379 406 204 
555 195 203 204 379 
556 379 203 204 403 
557 139 143 148 404 
558 389 377 404 143 
559 143 377 404 139 
560 377 389 404 405 
561 390 378 405 389 
562 389 378 405 377 
563 378 390 405 406 
564 391 379 406 390 
565 390 379 406 378 
566 379 391 406 204 
567 199 195 204 391 
568 391 195 204 379 
569 3 28 149 407 
570 174 55 407 28 
571 28 55 407 3 
572 55 174 407 408 
573 175 56 408 174 
574 174 56 408 55 
575 56 175 408 409 
576 176 57 409 175 
577 175 57 409 56 
578 57 176 409 205 
579 42 7 205 176 
580 176 7 205 57 
581 1 21 150 410 
582 153 49 410 21 
583 21 49 410 1 
584 49 153 410 411 
585 154 50 411 153 
586 153 50 411 49 
587 50 154 411 412 
588 155 51 412 154 
589 154 51 412 50 
590 51 155 412 206 
591 35 5 206 155 
592 155 5 206 51 
593 31 4 151 413 
594 58 183 413 4 
595 4 183 413 31 
596 183 58 413 414 
597 59 184 414 58 
598 58 184 414 183 
599 184 59 414 415 
600 60 185 415 59 
601 59 185 415 184 
602 185 60 415 207 
603 8 45 207 60 
604 60 45 207 185 
605 24 2 152 416 
606 52 162 416 2 
607 2 162 416 24 
608 162 52 416 417 
609 53 163 417 52 
610 52 163 417 162 
611 163 53 417 418 
612 54 164 418 53 
613 53 164 418 163 
614 164 54 418 208 
615 6 38 208 54 
616 54 38 208 164 
617 139 146 149 407 
618 398 377 407 146 
619 146 377 407 139 
620 377 398 407 408 
621 399 378 408 398 
622 398 378 408 377 
623 378 399 408 409 
624 400 379 409 399 
625 399 379 409 378 
626 379 400 409 205 
627 202 195 205 400 
628 400 195 205 379 
629 140 144 150 410 
630 392 380 410 144 
631 144 380 410 140 
632 380 392 410 411 
633 393 381 411 392 
634 392 381 411 380 
635 381 393 411 412 
636 394 382 412 393 
637 393 382 412 381 
638 382 394 412 206 
639 200 196 206 394 
640 394 196 206 382 
641 140 143 145 395 
642 389 380 395 143 
643 143 380 395 140 
644 380 389 395 396 
645 390 381 396 389 
646 389 381 396 380 
647 381 390 396 397 
648 391 382 397 390 
649 390 382 397 381 
650 382 391 397 201 
651 199 196 201 391 
652 391 196 201 382 
653 146 139 147 401 
654 377 398 401 146 
655 139 146 377 401 
656 398 377 401 402 
657 378 399 402 398 
658 377 398 378 402 
659 399 378 402 403 
660 379 400 403 399 
661 378 399 379 403 
662 400 379 403 203 
663 195 202 203 400 
664 379 400 195 203 
665 144 140 145 395 
666 380 392 395 144 
667 140 144 380 395 
668 392 380 395 396 
669 381 393 396 392 
670 380 392 381 396 
671 393 381 396 397 
672 382 394 397 393 
673 381 393 382 397 
674 394 382 397 201 
675 196 200 201 394 
676 382 394 196 201 
677 143 140 148 404 
678 380 389 404 143 
679 140 143 380 404 
680 389 380 404 405 
681 381 390 405 389 
682 380 389 381 405 
683 390 381 405 406 
684 382 391 406 390 
685 381 390 382 406 
686 391 382 406 204 
687 196 199 204 391 
688 382 391 196 204 
689 143 30 145 395 
690 180 389 395 30 
691 30 389 395 143 
692 389 180 395 396 
693 181 390 396 180 
694 180 390 396 389 
695 390 181 396 397 
696 182 391 397 181 
697 181 391 397 390 
698 391 182 397 201 
699 44 199 201 182 
700 182 199 201 391 
701 28 139 149 407 
702 377 174 407 139 
703 139 174 407 28 
704 174 377 407 408 
705 378 175 408 377 
706 377 175 408 174 
707 175 378 408 409 
708 379 176 409 378 
709 378 176 409 175 
710 176 379 409 205 
711 195 42 205 379 
712 379 42 205 176 
713 21 140 150 410 
714 380 153 410 140 
715 140 153 410 21 
716 153 380 410 411 
717 381 154 411 380 
718 380 154 411 153 
719 154 381 411 412 
720 382 155 412 381 
721 381 155 412 154 
722 155 382 412 206 
723 196 35 206 382 
724 382 35 206 155 
725 23 147 148 404 
726 401 159 404 147 
727 147 159 404 23 
728 159 401 404 405 
729 402 160 405 401 
730 401 160 405 159 
731 160 402 405 406 
732 403 161 406 402 
733 402 161 406 160 
734 161 403 406 204 
735 203 37 204 403 
736 403 37 204 161 
737 29 30 143 389 
738 180 177 389 30 
739 30 177 389 29 
740 177 180 389 390 
741 181 178 390 180 
742 180 178 390 177 
743 178 181 390 391 
744 182 179 391 181 
745 181 179 391 178 
746 179 182 391 199 
747 44 43 199 182 
748 182 43 199 179 
749 21 22 140 153 
750 156 153 380 22 
751 22 153 380 140 
752 153 156 380 154 
753 157 154 381 156 
754 156 154 381 380 
755 154 157 381 155 
756 158 155 382 157 
757 157 155 382 381 
758 155 158 382 35 
759 36 35 196 158 
760 158 35 196 382 
761 28 29 139 174 
762 177 174 377 29 
763 29 174 377 139 
764 174 177 377 175 
765 178 175 378 177 
766 177 175 378 377 
767 175 178 378 176 
768 179 176 379 178 
769 178 176 379 378 
770 176 179 379 42 
771 43 42 195 179 
772 179 42 195 379 
773 139 29 143 377 
774 177 377 389 29 
775 29 377 389 143 
776 377 177 389 378 
777 178 378 390 177 
778 177 378 390 389 
779 378 178 390 379 
780 179 379 391 178 
781 178 379 391 390 
782 379 179 391 195 
783 43 195 199 179 
784 179 195 199 391 
785 141 147 152 416 
786 401 383 416 141 
787 147 141 401 416 
788 383 401 416 417 
789 402 384 417 383 
790 401 383 402 417 
791 384 402 417 418 
792 403 385 418 384 
793 402 384 403 418 
794 385 403 418 208 
795 203 197 208 385 
796 403 385 203 208 
797 142 145 151 413 
798 395 386 413 142 
799 145 142 395 413 
800 386 395 413 414 
801 396 387 414 386 
802 395 386 396 414 
803 387 396 414 415 
804 397 388 415 387 
805 396 387 397 415 
806 388 397 415 207 
807 201 198 207 388 
808 397 388 201 207 
809 140 22 148 404 
810 156 380 404 22 
811 22 380 404 140 
812 380 156 404 405 
813 157 381 405 156 
814 156 381 405 380 
815 381 157 405 406 
816 158 382 406 157 
817 157 382 406 381 
818 382 158 406 204 
819 36 196 204 158 
820 158 196 204 382 
821 30 31 145 395 
822 183 180 395 31 
823 31 180 395 30 
824 180 183 395 396 
825 184 181 396 183 
826 183 181 396 180 
827 181 184 396 397 
828 185 182 397 184 
829 184 182 397 181 
830 182 185 397 201 
831 45 44 201 185 
832 185 44 201 182 
833 23 24 147 159 
834 162 159 401 24 
835 24 159 401 147 
836 159 162 401 160 
837 163 160 402 162 
838 162 160 402 401 
839 160 163 402 161 
840 164 161 403 163 
841 163 161 403 402 
842 161 164 403 37 
843 38 37 203 164 
844 164 37 203 403 
845 22 23 148 404 
846 159 156 404 23 
847 23 156 404 22 
848 156 159 404 405 
849 160 157 405 159 
850 159 157 405 156 
851 157 160 405 406 
852 161 158 406 160 
853 160 158 406 157 
854 158 161 406 204 
855 37 36 204 161 
856 161 36 204 158 
857 33 34 144 392 
858 192 189 392 34 
859 34 189 392 33 
860 189 192 392 393 
861 193 190 393 192 
862 192 190 393 189 
863 190 193 393 394 
864 194 191 394 193 
865 193 191 394 190 
866 191 194 394 200 
867 48 47 200 194 
868 194 47 200 191 
869 26 27 146 398 
870 171 168 398 27 
871 27 168 398 26 
872 168 171 398 399 
873 172 169 399 171 
874 171 169 399 168 
875 169 172 399 400 
876 173 170 400 172 
877 172 170 400 169 
878 170 173 400 202 
879 41 40 202 173 
880 173 40 202 170 
881 25 26 141 383 
882 168 165 383 26 
883 26 165 383 25 
884 165 168 383 384 
885 169 166 384 168 
886 168 166 384 165 
887 166 169 384 385 
888 170 167 385 169 
889 169 167 385 166 
890 167 170 385 197 
891 40 39 197 170 
892 170 39 197 167 
893 32 33 142 386 
894 189 186 386 33 
895 33 186 386 32 
896 186 189 386 387 
897 190 187 387 189 
898 189 187 387 186 
899 187 190 387 388 
900 191 188 388 190 
901 190 188 388 187 
902 188 191 388 198 
903 47 46 198 191 
904 191 46 198 188 
905 147 24 152 416 
906 162 401 416 24 
907 24 401 416 147 
908 401 162 416 417 
909 163 402 417 162 
910 162 402 417 401 
911 402 163 417 418 
912 164 403 418 163 
913 163 403 418 402 
914 403 164 418 208 
915 38 203 208 164 
916 164 203 208 403 
917 145 31 151 413 
918 183 395 413 31 
919 31 395 413 145 
920 395 183 413 414 
921 184 396 414 183 
922 183 396 414 395 
923 396 184 414 415 
924 185 397 415 184 
925 184 397 415 396 
926 397 185 415 207 
927 45 201 207 185 
928 185 201 207 397 
929 27 3 149 407 
930 55 171 407 3 
931 3 171 407 27 
932 171 55 407 408 
933 56 172 408 55 
934 55 172 408 171 
935 172 56 408 409 
936 57 173 409 56 
937 56 173 409 172 
938 173 57 409 205 
939 7 41 205 57 
940 57 41 205 173 
941 34 1 150 410 
942 49 192 410 1 
943 1 192 410 34 
944 192 49 410 411 
945 50 193 411 49 
946 49 193 411 192 
947 193 50 411 412 
948 51 194 412 50 
949 50 194 412 193 
950 194 51 412 206 
951 5 48 206 51 
952 51 48 206 194 
953 4 32 151 413 
954 186 58 413 32 
955 32 58 413 4 
956 58 186 413 414 
957 187 59 414 186 
958 186 59 414 58 
959 59 187 414 415 
960 188 60 415 187 
961 187 60 415 59 
962 60 188 415 207 
963 46 8 207 188 
964 188 8 207 60 
965 2 25 152 416 
966 165 52 416 25 
967 25 52 416 2 
968 52 165 416 417 
969 166 53 417 165 
970 165 53 417 52 
971 53 166 417 418 
972 167 54 418 166 
973 166 54 418 53 
974 54 167 418 208 
975 39 6 208 167 
976 167 6 208 54 
977 141 26 146 383 
978 168 383 398 26 
979 26 383 398 146 
980 383 168 398 384 
981 169 384 399 168 
982 168 384 399 398 
983 384 169 399 385 
984 170 385 400 169 
985 169 385 400 399 
986 385 170 400 197 
987 40 197 202 170 
988 170 197 202 400 
989 142 33 144 386 
990 189 386 392 33 
991 33 386 392 144 
992 386 189 392 387 
993 190 387 393 189 
994 189 387 393 392 
995 387 190 393 388 
996 191 388 394 190 
997 190 388 394 393 
998 388 191 394 198 
999 47 198 200 191 
1000 191 198 200 394 
1001 146 27 149 407 
1002 171 398 407 27 
1003 27 398 407 146 
1004 398 171 407 408 
1005 172 399 408 171 
1006 171 399 408 398 
1007 399 172 408 409 
1008 173 400 409 172 
1009 172 400 409 399 
1010 400 173 409 205 
1011 41 202 205 173 
1012 173 202 205 400 
1013 144 34 150 410 
1014 192 392 410 34 
1015 34 392 410 144 
1016 392 192 410 411 
1017 193 393 411 192 
1018 192 393 411 392 
1019 393 193 411 412 
1020 194 394 412 193 
1021 193 394 412 393 
1022 394 194 412 206 
1023 48 200 206 194 
1024 194 200 206 394 
1025 32 142 151 413 
1026 386 186 413 32 
1027 142 32 386 413 
1028 186 386 413 414 
1029 387 187 414 186 
1030 386 186 387 414 
1031 187 387 414 415 
1032 388 188 415 187 
1033 387 187 388 415 
1034 188 388 415 207 
1035 198 46 207 188 
1036 388 188 198 207 
1037 25 141 152 416 
1038 383 165 416 25 
1039 141 25 383 416 
1040 165 383 416 417 
1041 384 166 417 165 
1042 383 165 384 417 
1043 166 384 417 418 
1044 385 167 418 166 
1045 384 166 385 418 
1046 167 385 418 208 
1047 197 39 208 167 
1048 385 167 197 208 
3 2 6 176
1049 197 202 203 425 440 443 
1050 425 440 443 426 441 444 
1051 426 441 444 427 442 445 
1052 427 442 445 253 258 259 
1053 198 200 201 428 434 437 
1054 428 434 437 429 435 438 
1055 429 435 438 430 436 439 
1056 430 436 439 254 256 257 
1057 203 195 204 443 419 446 
1058 443 419 446 444 420 447 
1059 444 420 447 445 421 448 
1060 445 421 448 259 251 260 
1061 195 199 204 419 431 446 
1062 419 431 446 420 432 447 
1063 420 432 447 421 433 448 
1064 421 433 448 251 255 260 
1065 7 42 205 81 230 449 
1066 81 230 449 82 231 450 
1067 82 231 450 83 232 451 
1068 83 232 451 11 68 261 
1069 5 35 206 75 209 452 
1070 75 209 452 76 210 453 
1071 76 210 453 77 211 454 
1072 77 211 454 9 61 262 
1073 45 8 207 239 84 455 
1074 239 84 455 240 85 456 
1075 240 85 456 241 86 457 
1076 241 86 457 71 12 263 
1077 38 6 208 218 78 458 
1078 218 78 458 219 79 459 
1079 219 79 459 220 80 460 
1080 220 80 460 64 10 264 
1081 195 202 205 419 440 449 
1082 419 440 449 420 441 450 
1083 420 441 450 421 442 451 
1084 421 442 451 251 258 261 
1085 196 200 206 422 434 452 
1086 422 434 452 423 435 453 
1087 423 435 453 424 436 454 
1088 424 436 454 252 256 262 
1089 196 199 201 422 431 437 
1090 422 431 437 423 432 438 
1091 423 432 438 424 433 439 
1092 424 433 439 252 255 257 
1093 202 195 203 440 419 443 
1094 440 419 443 441 420 444 
1095 441 420 444 442 421 445 
1096 442 421 445 258 251 259 
1097 200 196 201 434 422 437 
1098 434 422 437 435 423 438 
1099 435 423 438 436 424 439 
1100 436 424 439 256 252 257 
1101 199 196 204 431 422 446 
1102 431 422 446 432 423 447 
1103 432 423 447 433 424 448 
1104 433 424 448 255 252 260 
1105 199 44 201 431 236 437 
1106 431 236 437 432 237 438 
1107 432 237 438 433 238 439 
1108 433 238 439 255 70 257 
1109 42 195 205 230 419 449 
1110 230 419 449 231 420 450 
1111 231 420 450 232 421 451 
1112 232 421 451 68 251 261 
1113 35 196 206 209 422 452 
1114 209 422 452 210 423 453 
1115 210 423 453 211 424 454 
1116 211 424 454 61 252 262 
1117 37 203 204 215 443 446 
1118 215 443 446 216 444 447 
1119 216 444 447 217 445 448 
1120 217 445 448 63 259 260 
1121 43 44 199 233 236 431 
1122 233 236 431 234 237 432 
1123 234 237 432 235 238 433 
1124 235 238 433 69 70 255 
1125 35 36 196 209 212 422 
1126 209 212 422 210 213 423 
1127 210 213 423 211 214 424 
1128 211 214 424 61 62 252 
1129 42 43 195 230 233 419 
1130 230 233 419 231 234 420 
1131 231 234 420 232 235 421 
1132 232 235 421 68 69 251 
1133 195 43 199 419 233 431 
1134 419 233 431 420 234 432 
1135 420 234 432 421 235 433 
1136 421 235 433 251 69 255 
1137 197 203 208 425 443 458 
1138 425 443 458 426 444 459 
1139 426 444 459 427 445 460 
1140 427 445 460 253 259 264 
1141 198 201 207 428 437 455 
1142 428 437 455 429 438 456 
1143 429 438 456 430 439 457 
1144 430 439 457 254 257 263 
1145 196 36 204 422 212 446 
1146 422 212 446 423 213 447 
1147 423 213 447 424 214 448 
1148 424 214 448 252 62 260 
1149 44 45 201 236 239 437 
1150 236 239 437 237 240 438 
1151 237 240 438 238 241 439 
1152 238 241 439 70 71 257 
1153 37 38 203 215 218 443 
1154 215 218 443 216 219 444 
1155 216 219 444 217 220 445 
1156 217 220 445 63 64 259 
1157 36 37 204 212 215 446 
1158 212 215 446 213 216 447 
1159 213 216 447 214 217 448 
1160 214 217 448 62 63 260 
1161 47 48 200 245 248 434 
1162 245 248 434 246 249 435 
1163 246 249 435 247 250 436 
1164 247 250 436 73 74 256 
1165 40 41 202 224 227 440 
1166 224 227 440 225 228 441 
1167 225 228 441 226 229 442 
1168 226 229 442 66 67 258 
1169 39 40 197 221 224 425 
1170 221 224 425 222 225 426 
1171 222 225 426 223 226 427 
1172 223 226 427 65 66 253 
1173 46 47 198 242 245 428 
1174 242 245 428 243 246 429 
1175 243 246 429 244 247 430 
1176 244 247 430 72 73 254 
1177 203 38 208 443 218 458 
1178 443 218 458 444 219 459 
1179 444 219 459 445 220 460 
1180 445 220 460 259 64 264 
1181 201 45 207 437 239 455 
1182 437 239 455 438 240 456 
1183 438 240 456 439 241 457 
1184 439 241 457 257 71 263 
1185 41 7 205 227 81 449 
1186 227 81 449 228 82 450 
1187 228 82 450 229 83 451 
1188 229 83 451 67 11 261 
1189 48 5 206 248 75 452 
1190 248 75 452 249 76 453 
1191 249 76 453 250 77 454 
1192 250 77 454 74 9 262 
1193 8 46 207 84 242 455 
1194 84 242 455 85 243 456 
1195 85 243 456 86 244 457 
1196 86 244 457 12 72 263 
1197 6 39 208 78 221 458 
1198 78 221 458 79 222 459 
1199 79 222 459 80 223 460 
1200 80 223 460 10 65 264 
1201 197 40 202 425 224 440 
1202 425 224 440 426 225 441 
1203 426 225 441 427 226 442 
1204 427 226 442 253 66 258 
1205 198 47 200 428 245 434 
1206 428 245 434 429 246 435 
1207 429 246 435 430 247 436 
1208 430 247 436 254 73 256 
1209 202 41 205 440 227 449 
1210 440 227 449 441 228 450 
1211 441 228 450 442 229 451 
1212 442 229 451 258 67 261 
1213 200 48 206 434 248 452 
1214 434 248 452 435 249 453 
1215 435 249 453 436 250 454 
1216 436 250 454 256 74 262 
1217 46 198 207 242 428 455 
1218 242 428 455 243 429 456 
1219 243 429 456 244 430 457 
1220 244 430 457 72 254 263 
1221 39 197 208 221 425 458 
1222 221 425 458 222 426 459 
1223 222 426 459 223 427 460 
1224 223 427 460 65 253 264 
3 3 4 528
1225 253 258 259 485 
1226 482 467 485 258 
1227 258 467 485 253 
1228 467 482 485 486 
1229 483 468 486 482 
1230 482 468 486 467 
1231 468 483 486 487 
1232 484 469 487 483 
1233 483 469 487 468 
1234 469 484 487 315 
1235 314 309 315 484 
1236 484 309 315 469 
1237 254 256 257 479 
1238 476 470 479 256 
1239 256 470 479 254 
1240 470 476 479 480 
1241 477 471 480 476 
1242 476 471 480 470 
1243 471 477 480 481 
1244 478 472 481 477 
1245 477 472 481 471 
1246 472 478 481 313 
1247 312 310 313 478 
1248 478 310 313 472 
1249 259 251 260 488 
1250 461 485 488 251 
1251 251 485 488 259 
1252 485 461 488 489 
1253 462 486 489 461 
1254 461 486 489 485 
1255 486 462 489 490 
1256 463 487 490 462 
1257 462 487 490 486 
1258 487 463 490 316 
1259 307 315 316 463 
1260 463 315 316 487 
1261 251 255 260 488 
1262 473 461 488 255 
1263 255 461 488 251 
1264 461 473 488 489 
1265 474 462 489 473 
1266 473 462 489 461 
1267 462 474 489 490 
1268 475 463 490 474 
1269 474 463 490 462 
1270 463 475 490 316 
1271 311 307 316 475 
1272 475 307 316 463 
1273 11 68 261 491 
1274 286 107 491 68 
1275 68 107 491 11 
1276 107 286 491 492 
1277 287 108 492 286 
1278 286 108 492 107 
1279 108 287 492 493 
1280 288 109 493 287 
1281 287 109 493 108 
1282 109 288 493 317 
1283 94 15 317 288 
1284 288 15 317 109 
1285 9 61 262 494 
1286 265 101 494 61 
1287 61 101 494 9 
1288 101 265 494 495 
1289 266 102 495 265 
1290 265 102 495 101 
1291 102 266 495 496 
1292 267 103 496 266 
1293 266 103 496 102 
1294 103 267 496 318 
1295 87 13 318 267 
1296 267 13 318 103 
1297 71 12 263 497 
1298 110 295 497 12 
1299 12 295 497 71 
1300 295 110 497 498 
1301 111 296 498 110 
1302 110 296 498 295 
1303 296 111 498 499 
1304 112 297 499 111 
1305 111 297 499 296 
1306 297 112 499 319 
1307 16 97 319 112 
1308 112 97 319 297 
1309 64 10 264 500 
1310 104 274 500 10 
1311 10 274 500 64 
1312 274 104 500 501 
1313 105 275 501 104 
1314 104 275 501 274 
1315 275 105 501 502 
1316 106 276 502 105 
1317 105 276 502 275 
1318 276 106 502 320 
1319 14 90 320 106 
1320 106 90 320 276 
1321 251 258 261 491 
1322 482 461 491 258 
1323 258 461 491 251 
1324 461 482 491 492 
1325 483 462 492 482 
1326 482 462 492 461 
1327 462 483 492 493 
1328 484 463 493 483 
1329 483 463 493 462 
1330 463 484 493 317 
1331 314 307 317 484 
1332 484 307 317 463 
1333 252 256 262 494 
1334 476 464 494 256 
1335 256 464 494 252 
1336 464 476 494 495 
1337 477 465 495 476 
1338 476 465 495 464 
1339 465 477 495 496 
1340 478 466 496 477 
1341 477 466 496 465 
1342 466 478 496 318 
1343 312 308 318 478 
1344 478 308 318 466 
1345 252 255 257 479 
1346 473 464 479 255 
1347 255 464 479 252 
1348 464 473 479 480 
1349 474 465 480 473 
1350 473 465 480 464 
1351 465 474 480 481 
1352 475 466 481 474 
1353 474 466 481 465 
1354 466 475 481 313 
1355 311 308 313 475 
1356 475 308 313 466 
1357 258 251 259 485 
1358 461 482 485 258 
1359 251 258 461 485 
1360 482 461 485 486 
1361 462 483 486 482 
1362 461 482 462 486 
1363 483 462 486 487 
1364 463 484 487 483 
1365 462 483 463 487 
1366 484 463 487 315 
1367 307 314 315 484 
1368 463 484 307 315 
1369 256 252 257 479 
1370 464 476 479 256 
1371 252 256 464 479 
1372 476 464 479 480 
1373 465 477 480 476 
1374 464 476 465 480 
1375 477 465 480 481 
1376 466 478 481 477 
1377 465 477 466 481 
1378 478 466 481 313 
1379 308 312 313 478 
1380 466 478 308 313 
1381 255 252 260 488 
1382 464 473 488 255 
1383 252 255 464 488 
1384 473 464 488 489 
1385 465 474 489 473 
1386 464 473 465 489 
1387 474 465 489 490 
1388 466 475 490 474 
1389 465 474 466 490 
1390 475 466 490 316 
1391 308 311 316 475 
1392 466 475 308 316 
1393 255 70 257 479 
1394 292 473 479 70 
1395 70 473 479 255 
1396 473 292 479 480 
1397 293 474 480 292 
1398 292 474 480 473 
1399 474 293 480 481 
1400 294 475 481 293 
1401 293 475 481 474 
1402 475 294 481 313 
1403 96 311 313 294 
1404 294 311 313 475 
1405 68 251 261 491 
1406 461 286 491 251 
1407 251 286 491 68 
1408 286 461 491 492 
1409 462 287 492 461 
1410 461 287 492 286 
1411 287 462 492 493 
1412 463 288 493 462 
1413 462 288 493 287 
1414 288 463 493 317 
1415 307 94 317 463 
1416 463 94 317 288 
1417 61 252 262 494 
1418 464 265 494 252 
1419 252 265 494 61 
1420 265 464 494 495 
1421 465 266 495 464 
1422 464 266 495 265 
1423 266 465 495 496 
1424 466 267 496 465 
1425 465 267 496 266 
1426 267 466 496 318 
1427 308 87 318 466 
1428 466 87 318 267 
1429 63 259 260 488 
1430 485 271 488 259 
1431 259 271 488 63 
1432 271 485 488 489 
1433 486 272 489 485 
1434 485 272 489 271 
1435 272 486 489 490 
1436 487 273 490 486 
1437 486 273 490 272 
1438 273 487 490 316 
1439 315 89 316 487 
1440 487 89 316 273 
1441 69 70 255 473 
1442 292 289 473 70 
1443 70 289 473 69 
1444 289 292 473 474 
1445 293 290 474 292 
1446 292 290 474 289 
1447 290 293 474 475 
1448 294 291 475 293 
1449 293 291 475 290 
1450 291 294 475 311 
1451 96 95 311 294 
1452 294 95 311 291 
1453 61 62 252 265 
1454 268 265 464 62 
1455 62 265 464 252 
1456 265 268 464 266 
1457 269 266 465 268 
1458 268 266 465 464 
1459 266 269 465 267 
1460 270 267 466 269 
1461 269 267 466 465 
1462 267 270 466 87 
1463 88 87 308 270 
1464 270 87 308 466 
1465 68 69 251 286 
1466 289 286 461 69 
1467 69 286 461 251 
1468 286 289 461 287 
1469 290 287 462 289 
1470 289 287 462 461 
1471 287 290 462 288 
1472 291 288 463 290 
1473 290 288 463 462 
1474 288 291 463 94 
1475 95 94 307 291 
1476 291 94 307 463 
1477 251 69 255 461 
1478 289 461 473 69 
1479 69 461 473 255 
1480 461 289 473 462 
1481 290 462 474 289 
1482 289 462 474 473 
1483 462 290 474 463 
1484 291 463 475 290 
1485 290 463 475 474 
1486 463 291 475 307 
1487 95 307 311 291 
1488 291 307 311 475 
1489 253 259 264 500 
1490 485 467 500 253 
1491 259 253 485 500 
1492 467 485 500 501 
1493 486 468 501 467 
1494 485 467 486 501 
1495 468 486 501 502 
1496 487 469 502 468 
1497 486 468 487 502 
1498 469 487 502 320 
1499 315 309 320 469 
1500 487 469 315 320 
1501 254 257 263 497 
1502 479 470 497 254 
1503 257 254 479 497 
1504 470 479 497 498 
1505 480 471 498 470 
1506 479 470 480 498 
1507 471 480 498 499 
1508 481 472 499 471 
1509 480 471 481 499 
1510 472 481 499 319 
1511 313 310 319 472 
1512 481 472 313 319 
1513 252 62 260 488 
1514 268 464 488 62 
1515 62 464 488 252 
1516 464 268 488 489 
1517 269 465 489 268 
1518 268 465 489 464 
1519 465 269 489 490 
1520 270 466 490 269 
1521 269 466 490 465 
1522 466 270 490 316 
1523 88 308 316 270 
1524 270 308 316 466 
1525 70 71 257 479 
1526 295 292 479 71 
1527 71 292 479 70 
1528 292 295 479 480 
1529 296 293 480 295 
1530 295 293 480 292 
1531 293 296 480 481 
1532 297 294 481 296 
1533 296 294 481 293 
1534 294 297 481 313 
1535 97 96 313 297 
1536 297 96 313 294 
1537 63 64 259 271 
1538 274 271 485 64 
1539 64 271 485 259 
1540 271 274 485 272 
1541 275 272 486 274 
1542 274 272 486 485 
1543 272 275 486 273 
1544 276 273 487 275 
1545 275 273 487 486 
1546 273 276 487 89 
1547 90 89 315 276 
1548 276 89 315 487 
1549 62 63 260 488 
1550 271 268 488 63 
1551 63 268 488 62 
1552 268 271 488 489 
1553 272 269 489 271 
1554 271 269 489 268 
1555 269 272 489 490 
1556 273 270 490 272 
1557 272 270 490 269 
1558 270 273 490 316 
1559 89 88 316 273 
1560 273 88 316 270 
1561 73 74 256 476 
1562 304 301 476 74 
1563 74 301 476 73 
1564 301 304 476 477 
1565 305 302 477 304 
1566 304 302 477 301 
1567 302 305 477 478 
1568 306 303 478 305 
1569 305 303 478 302 
1570 303 306 478 312 
1571 100 99 312 306 
1572 306 99 312 303 
1573 66 67 258 482 
1574 283 280 482 67 
1575 67 280 482 66 
1576 280 283 482 483 
1577 284 281 483 283 
1578 283 281 483 280 
1579 281 284 483 484 
1580 285 282 484 284 
1581 284 282 484 281 
1582 282 285 484 314 
1583 93 92 314 285 
1584 285 92 314 282 
1585 65 66 253 467 
1586 280 277 467 66 
1587 66 277 467 65 
1588 277 280 467 468 
1589 281 278 468 280 
1590 280 278 468 277 
1591 278 281 468 469 
1592 282 279 469 281 
1593 281 279 469 278 
1594 279 282 469 309 
1595 92 91 309 282 
1596 282 91 309 279 
1597 72 73 254 470 
1598 301 298 470 73 
1599 73 298 470 72 
1600 298 301 470 471 
1601 302 299 471 301 
1602 301 299 471 298 
1603 299 302 471 472 
1604 303 300 472 302 
1605 302 300 472 299 
1606 300 303 472 310 
1607 99 98 310 303 
1608 303 98 310 300 
1609 259 64 264 500 
1610 274 485 500 64 
1611 64 485 500 259 
1612 485 274 500 501 
1613 275 486 501 274 
1614 274 486 501 485 
1615 486 275 501 502 
1616 276 487 502 275 
1617 275 487 502 486 
1618 487 276 502 320 
1619 90 315 320 276 
1620 276 315 320 487 
1621 257 71 263 497 
1622 295 479 497 71 
1623 71 479 497 257 
1624 479 295 497 498 
1625 296 480 498 295 
1626 295 480 498 479 
1627 480 296 498 499 
1628 297 481 499 296 
1629 296 481 499 480 
1630 481 297 499 319 
1631 97 313 319 297 
1632 297 313 319 481 
1633 67 11 261 491 
1634 107 283 491 11 
1635 11 283 491 67 
1636 283 107 491 492 
1637 108 284 492 107 
1638 107 284 492 283 
1639 284 108 492 493 
1640 109 285 493 108 
1641 108 285 493 284 
1642 285 109 493 317 
1643 15 93 317 109 
1644 109 93 317 285 
1645 74 9 262 494 
1646 101 304 494 9 
1647 9 304 494 74 
1648 304 101 494 495 
1649 102 305 495 101 
1650 101 305 495 304 
1651 305 102 495 496 
1652 103 306 496 102 
1653 102 306 496 305 
1654 306 103 496 318 
1655 13 100 318 103 
1656 103 100 318 306 
1657 12 72 263 497 
1658 298 110 497 72 
1659 72 110 497 12 
1660 110 298 497 498 
1661 299 111 498 298 
1662 298 111 498 110 
1663 111 299 498 499 
1664 300 112 499 299 
1665 299 112 499 111 
1666 112 300 499 319 
1667 98 16 319 300 
1668 300 16 319 112 
1669 10 65 264 500 
1670 277 104 500 65 
1671 65 104 500 10 
1672 104 277 500 501 
1673 278 105 501 277 
1674 277 105 501 104 
1675 105 278 501 502 
1676 279 106 502 278 
1677 278 106 502 105 
1678 106 279 502 320 
1679 91 14 320 279 
1680 279 14 320 106 
1681 253 66 258 467 
1682 280 467 482 66 
1683 66 467 482 258 
1684 467 280 482 468 
1685 281 468 483 280 
1686 280 468 483 482 
1687 468 281 483 469 
1688 282 469 484 281 
1689 281 469 484 483 
1690 469 282 484 309 
1691 92 309 314 282 
1692 282 309 314 484 
1693 254 73 256 470 
1694 301 470 476 73 
1695 73 470 476 256 
1696 470 301 476 471 
1697 302 471 477 301 
1698 301 471 477 476 
1699 471 302 477 472 
1700 303 472 478 302 
1701 302 472 478 477 
1702 472 303 478 310 
1703 99 310 312 303 
1704 303 310 312 478 
1705 258 67 261 491 
1706 283 482 491 67 
1707 67 482 491 258 
1708 482 283 491 492 
1709 284 483 492 283 
1710 283 483 492 482 
1711 483 284 492 493 
1712 285 484 493 284 
1713 284 484 493 483 
1714 484 285 493 317 
1715 93 314 317 285 
1716 285 314 317 484 
1717 256 74 262 494 
1718 304 476 494 74 
1719 74 476 494 256 
1720 476 304 494 495 
1721 305 477 495 304 
1722 304 477 495 476 
1723 477 305 495 496 
1724 306 478 496 305 
1725 305 478 496 477 
1726 478 306 496 318 
1727 100 312 318 306 
1728 306 312 318 478 
1729 72 254 263 497 
1730 470 298 497 72 
1731 254 72 470 497 
1732 298 470 497 498 
1733 471 299 498 298 
1734 470 298 471 498 
1735 299 471 498 499 
1736 472 300 499 299 
1737 471 299 472 499 
1738 300 472 499 319 
1739 310 98 319 300 
1740 472 300 310 319 
1741 65 253 264 500 
1742 467 277 500 65 
1743 253 65 467 500 
1744 277 467 500 501 
1745 468 278 501 277 
1746 467 277 468 501 
1747 278 468 501 502 
1748 469 279 502 278 
1749 468 278 469 502 
1750 279 469 502 320 
1751 309 91 320 279 
1752 469 279 309 320 
3 4 6 176
1753 309 314 315 509 524 527 
1754 509 524 527 510 525 528 
1755 510 525 528 511 526 529 
1756 511 526 529 365 370 371 
1757 310 312 313 512 518 521 
1758 512 518 521 513 519 522 
1759 513 519 522 514 520 523 
1760 514 520 523 366 368 369 
1761 315 307 316 527 503 530 
1762 527 503 530 528 504 531 
1763 528 504 531 529 505 532 
1764 529 505 532 371 363 372 
1765 307 311 316 503 515 530 
1766 503 515 530 504 516 531 
1767 504 516 531 505 517 532 
1768 505 517 532 363 367 372 
1769 15 94 317 133 342 533 
1770 133 342 533 134 343 534 
1771 134 343 534 135 344 535 
1772 135 344 535 19 120 373 
1773 13 87 318 127 321 536 
1774 127 321 536 128 322 537 
1775 128 322 537 129 323 538 
1776 129 323 538 17 113 374 
1777 97 16 319 351 136 539 
1778 351 136 539 352 137 540 
1779 352 137 540 353 138 541 
1780 353 138 541 123 20 375 
1781 90 14 320 330 130 542 
1782 330 130 542 331 131 543 
1783 331 131 543 332 132 544 
1784 332 132 544 116 18 376 
1785 307 314 317 503 524 533 
1786 503 524 533 504 525 534 
1787 504 525 534 505 526 535 
1788 505 526 535 363 370 373 
1789 308 312 318 506 518 536 
1790 506 518 536 507 519 537 
1791 507 519 537 508 520 538 
1792 508 520 538 364 368 374 
1793 308 311 313 506 515 521 
1794 506 515 521 507 516 522 
1795 507 516 522 508 517 523 
1796 508 517 523 364 367 369 
1797 314 307 315 524 503 527 
1798 524 503 527 525 504 528 
1799 525 504 528 526 505 529 
1800 526 505 529 370 363 371 
1801 312 308 313 518 506 521 
1802 518 506 521 519 507 522 
1803 519 507 522 520 508 523 
1804 520 508 523 368 364 369 
1805 311 308 316 515 506 530 
1806 515 506 530 516 507 531 
1807 516 507 531 517 508 532 
1808 517 508 532 367 364 372 
1809 311 96 313 515 348 521 
1810 515 348 521 516 349 522 
1811 516 349 522 517 350 523 
1812 517 350 523 367 122 369 
1813 94 307 317 342 503 533 
1814 342 503 533 343 504 534 
1815 343 504 534 344 505 535 
1816 344 505 535 120 363 373 
1817 87 308 318 321 506 536 
1818 321 506 536 322 507 537 
1819 322 507 537 323 508 538 
1820 323 508 538 113 364 374 
1821 89 315 316 327 527 530 
1822 327 527 530 328 528 531 
1823 328 528 531 329 529 532 
1824 329 529 532 115 371 372 
1825 95 96 311 345 348 515 
1826 345 348 515 346 349 516 
1827 346 349 516 347 350 517 
1828 347 350 517 121 122 367 
1829 87 88 308 321 324 506 
1830 321 324 506 322 325 507 
1831 322 325 507 323 326 508 
1832 323 326 508 113 114 364 
1833 94 95 307 342 345 503 
1834 342 345 503 343 346 504 
1835 343 346 504 344 347 505 
1836 344 347 505 120 121 363 
1837 307 95 311 503 345 515 
1838 503 345 515 504 346 516 
1839 504 346 516 505 347 517 
1840 505 347 517 363 121 367 
1841 309 315 320 509 527 542 
1842 509 527 542 510 528 543 
1843 510 528 543 511 529 544 
1844 511 529 544 365 371 376 
1845 310 313 319 512 521 539 
1846 512 521 539 513 522 540 
1847 513 522 540 514 523 541 
1848 514 523 541 366 369 375 
1849 308 88 316 506 324 530 
1850 506 324 530 507 325 531 
1851 507 325 531 508 326 532 
1852 508 326 532 364 114 372 
1853 96 97 313 348 351 521 
1854 348 351 521 349 352 522 
1855 349 352 522 350 353 523 
1856 350 353 523 122 123 369 
1857 89 90 315 327 330 527 
1858 327 330 527 328 331 528 
1859 328 331 528 329 332 529 
1860 329 332 529 115 116 371 
1861 88 89 316 324 327 530 
1862 324 327 530 325 328 531 
1863 325 328 531 326 329 532 
1864 326 329 532 114 115 372 
1865 99 100 312 357 360 518 
1866 357 360 518 358 361 519 
1867 358 361 519 359 362 520 
1868 359 362 520 125 126 368 
1869 92 93 314 336 339 524 
1870 336 339 524 337 340 525 
1871 337 340 525 338 341 526 
1872 338 341 526 118 119 370 
1873 91 92 309 333 336 509 
1874 333 336 509 334 337 510 
1875 334 337 510 335 338 511 
1876 335 338 511 117 118 365 
1877 98 99 310 354 357 512 
1878 354 357 512 355 358 513 
1879 355 358 513 356 359 514 
1880 356 359 514 124 125 366 
1881 315 90 320 527 330 542 
1882 527 330 542 528 331 543 
1883 528 331 543 529 332 544 
1884 529 332 544 371 116 376 
1885 313 97 319 521 351 539 
1886 521 351 539 522 352 540 
1887 522 352 540 523 353 541 
1888 523 353 541 369 123 375 
1889 93 15 317 339 133 533 
1890 339 133 533 340 134 534 
1891 340 134 534 341 135 535 
1892 341 135 535 119 19 373 
1893 100 13 318 360 127 536 
1894 360 127 536 361 128 537 
1895 361 128 537 362 129 538 
1896 362 129 538 126 17 374 
1897 16 98 319 136 354 539 
1898 136 354 539 137 355 540 
1899 137 355 540 138 356 541 
1900 138 356 541 20 124 375 
1901 14 91 320 130 333 542 
1902 130 333 542 131 334 543 
1903 131 334 543 132 335 544 
1904 132 335 544 18 117 376 
1905 309 92 314 509 336 524 
1906 509 336 524 510 337 525 
1907 510 337 525 511 338 526 
1908 511 338 526 365 118 370 
1909 310 99 312 512 357 518 
1910 512 357 518 513 358 519 
1911 513 358 519 514 359 520 
1912 514 359 520 366 125 368 
1913 314 93 317 524 339 533 
1914 524 339 533 525 340 534 
1915 525 340 534 526 341 535 
1916 526 341 535 370 119 373 
1917 312 100 318 518 360 536 
1918 518 360 536 519 361 537 
1919 519 361 537 520 362 538 
1920 520 362 538 368 126 374 
1921 98 310 319 354 512 539 
1922 354 512 539 355 513 540 
1923 355 513 540 356 514 541 
1924 356 514 541 124 366 375 
1925 91 309 320 333 509 542 
1926 333 509 542 334 510 543 
1927 334 510 543 335 511 544 
1928 335 511 544 117 365 376 
$EndElements
